<svg xmlns="http://www.w3.org/2000/svg" viewBox="0 0 600 400" width="600" height="400" role="img" aria-label="Specimen plate — generative III">
  <rect width="600" height="400" fill="#0e0912"/>
  <rect x="8" y="8" width="584" height="384" fill="none" stroke="#4a2f5e" stroke-width="1"/>
  <g>
    <rect x="150" y="70"  width="40" height="40" fill="#5b3d82" opacity="0.5"/>
    <rect x="230" y="70"  width="40" height="40" fill="#7e2637" opacity="0.4"/>
    <rect x="350" y="70"  width="40" height="40" fill="#a884e0" opacity="0.3"/>
    <rect x="410" y="110" width="40" height="40" fill="#5b3d82" opacity="0.6"/>
    <rect x="110" y="150" width="40" height="40" fill="#c14a5c" opacity="0.35"/>
    <rect x="190" y="150" width="40" height="40" fill="#a884e0" opacity="0.55"/>
    <rect x="310" y="190" width="40" height="40" fill="#5b3d82" opacity="0.4"/>
    <rect x="390" y="190" width="40" height="40" fill="#7e2637" opacity="0.5"/>
    <rect x="150" y="230" width="40" height="40" fill="#a884e0" opacity="0.3"/>
    <rect x="250" y="250" width="40" height="40" fill="#5b3d82" opacity="0.6"/>
    <rect x="330" y="270" width="40" height="40" fill="#c14a5c" opacity="0.45"/>
    <rect x="430" y="240" width="40" height="40" fill="#a884e0" opacity="0.35"/>
    <rect x="210" y="300" width="40" height="40" fill="#7e2637" opacity="0.4"/>
  </g>
  <g fill="none" stroke="#a884e0" stroke-width="1" opacity="0.5">
    <path d="M170 90 L250 90 L430 130 L130 170 L210 170 L330 210 L410 210 L170 250 L270 270 L350 290 L450 260 L230 320"/>
  </g>
  <text x="24" y="376" font-family="Consolas, monospace" font-size="13" fill="#61586f">MOKI // IMG-05 &#183; GENERATIVE — SEED 0x1A</text>
</svg>
