<svg xmlns="http://www.w3.org/2000/svg" viewBox="0 0 600 400" width="600" height="400" role="img" aria-label="Specimen plate — audio">
  <defs>
    <pattern id="g2" width="30" height="30" patternUnits="userSpaceOnUse">
      <path d="M30 0H0V30" fill="none" stroke="#2a1720" stroke-width="1"/>
    </pattern>
  </defs>
  <rect width="600" height="400" fill="#130b10"/>
  <rect width="600" height="400" fill="url(#g2)" opacity="0.6"/>
  <rect x="8" y="8" width="584" height="384" fill="none" stroke="#7e2637" stroke-width="1"/>
  <line x1="40" y1="200" x2="560" y2="200" stroke="#3a2028" stroke-width="1"/>
  <g stroke="#c14a5c" stroke-width="3" fill="none" stroke-linecap="round">
    <path d="M60 200 L60 200"/>
    <path d="M80 200 L80 165"/>
    <path d="M100 200 L100 120"/>
    <path d="M120 200 L120 180"/>
    <path d="M140 200 L140 90"/>
    <path d="M160 200 L160 150"/>
    <path d="M180 200 L180 220"/>
    <path d="M200 200 L200 110"/>
    <path d="M220 200 L220 250"/>
    <path d="M240 200 L240 140"/>
    <path d="M260 200 L260 300"/>
    <path d="M280 200 L280 130"/>
    <path d="M300 200 L300 280"/>
    <path d="M320 200 L320 100"/>
    <path d="M340 200 L340 260"/>
    <path d="M360 200 L360 155"/>
    <path d="M380 200 L380 235"/>
    <path d="M400 200 L400 125"/>
    <path d="M420 200 L420 215"/>
    <path d="M440 200 L440 170"/>
    <path d="M460 200 L460 245"/>
    <path d="M480 200 L480 135"/>
    <path d="M500 200 L500 190"/>
    <path d="M520 200 L520 160"/>
    <path d="M540 200 L540 200"/>
  </g>
  <text x="24" y="376" font-family="Consolas, monospace" font-size="13" fill="#7a5058">MOKI // IMG-02 &#183; AUDIO WAVEFORM</text>
</svg>
